<mxfile host="www.draw.io" modified="2020-03-07T09:31:25.564Z" agent="Mozilla/5.0 (Macintosh; Intel Mac OS X 10_14_6) AppleWebKit/605.1.15 (KHTML, like Gecko) Version/12.1.2 Safari/605.1.15" etag="ma1QXn8b_4wca2oWilK7" version="12.8.1" type="github">
  <diagram id="JOxRl1BIi76R3ZCF6GQ4" name="第 1 页">
    <mxGraphModel dx="908" dy="639" grid="1" gridSize="10" guides="1" tooltips="1" connect="1" arrows="1" fold="1" page="1" pageScale="1" pageWidth="827" pageHeight="1169" math="0" shadow="0">
      <root>
        <mxCell id="0" />
        <mxCell id="1" parent="0" />
        <mxCell id="7ctNC7Bp93xTTp6SRrF6-1" value="client" style="whiteSpace=wrap;html=1;aspect=fixed;" vertex="1" parent="1">
          <mxGeometry x="60" y="50" width="110" height="110" as="geometry" />
        </mxCell>
        <mxCell id="7ctNC7Bp93xTTp6SRrF6-2" value="namenode" style="whiteSpace=wrap;html=1;aspect=fixed;" vertex="1" parent="1">
          <mxGeometry x="510" y="50" width="110" height="110" as="geometry" />
        </mxCell>
        <mxCell id="7ctNC7Bp93xTTp6SRrF6-3" value="datanode1" style="whiteSpace=wrap;html=1;aspect=fixed;" vertex="1" parent="1">
          <mxGeometry x="75" y="320" width="80" height="80" as="geometry" />
        </mxCell>
        <mxCell id="7ctNC7Bp93xTTp6SRrF6-4" value="datanode2" style="whiteSpace=wrap;html=1;aspect=fixed;" vertex="1" parent="1">
          <mxGeometry x="320" y="320" width="80" height="80" as="geometry" />
        </mxCell>
        <mxCell id="7ctNC7Bp93xTTp6SRrF6-5" value="datanode3" style="whiteSpace=wrap;html=1;aspect=fixed;" vertex="1" parent="1">
          <mxGeometry x="525" y="320" width="80" height="80" as="geometry" />
        </mxCell>
        <mxCell id="7ctNC7Bp93xTTp6SRrF6-23" value="1.请求 namenide 上传文件 /user/hive/warehouse/xxx" style="text;html=1;align=center;verticalAlign=middle;resizable=0;points=[];autosize=1;" vertex="1" parent="1">
          <mxGeometry x="170" y="40" width="300" height="20" as="geometry" />
        </mxCell>
        <mxCell id="7ctNC7Bp93xTTp6SRrF6-25" value="" style="endArrow=classic;html=1;exitX=-0.003;exitY=1.2;exitDx=0;exitDy=0;exitPerimeter=0;" edge="1" parent="1" source="7ctNC7Bp93xTTp6SRrF6-23">
          <mxGeometry width="50" height="50" relative="1" as="geometry">
            <mxPoint x="170" y="70" as="sourcePoint" />
            <mxPoint x="507" y="64" as="targetPoint" />
          </mxGeometry>
        </mxCell>
        <mxCell id="7ctNC7Bp93xTTp6SRrF6-27" value="" style="endArrow=classic;html=1;" edge="1" parent="1">
          <mxGeometry width="50" height="50" relative="1" as="geometry">
            <mxPoint x="510" y="89.5" as="sourcePoint" />
            <mxPoint x="173" y="89.5" as="targetPoint" />
          </mxGeometry>
        </mxCell>
        <mxCell id="7ctNC7Bp93xTTp6SRrF6-32" value="2.请求同意" style="text;html=1;align=center;verticalAlign=middle;resizable=0;points=[];autosize=1;" vertex="1" parent="1">
          <mxGeometry x="440" y="70" width="70" height="20" as="geometry" />
        </mxCell>
        <mxCell id="7ctNC7Bp93xTTp6SRrF6-33" value="" style="endArrow=classic;html=1;entryX=-0.045;entryY=0.818;entryDx=0;entryDy=0;entryPerimeter=0;exitX=1;exitY=0.818;exitDx=0;exitDy=0;exitPerimeter=0;" edge="1" parent="1">
          <mxGeometry width="50" height="50" relative="1" as="geometry">
            <mxPoint x="174.95" y="130" as="sourcePoint" />
            <mxPoint x="509.99999999999994" y="130" as="targetPoint" />
          </mxGeometry>
        </mxCell>
        <mxCell id="7ctNC7Bp93xTTp6SRrF6-34" value="3.上传第一块block(0-128MB),请返回datanode地址" style="text;html=1;align=center;verticalAlign=middle;resizable=0;points=[];autosize=1;" vertex="1" parent="1">
          <mxGeometry x="230" y="110" width="280" height="20" as="geometry" />
        </mxCell>
        <mxCell id="7ctNC7Bp93xTTp6SRrF6-37" value="" style="endArrow=classic;html=1;" edge="1" parent="1">
          <mxGeometry width="50" height="50" relative="1" as="geometry">
            <mxPoint x="510" y="159" as="sourcePoint" />
            <mxPoint x="173" y="159" as="targetPoint" />
          </mxGeometry>
        </mxCell>
        <mxCell id="7ctNC7Bp93xTTp6SRrF6-38" value="4.返回dn1,dn2,dn3 (表示这三个datanode可以储存数据)" style="text;html=1;align=center;verticalAlign=middle;resizable=0;points=[];autosize=1;" vertex="1" parent="1">
          <mxGeometry x="190" y="140" width="310" height="20" as="geometry" />
        </mxCell>
        <mxCell id="7ctNC7Bp93xTTp6SRrF6-39" value="" style="endArrow=classic;html=1;" edge="1" parent="1">
          <mxGeometry width="50" height="50" relative="1" as="geometry">
            <mxPoint x="100" y="160" as="sourcePoint" />
            <mxPoint x="100" y="310" as="targetPoint" />
          </mxGeometry>
        </mxCell>
        <mxCell id="7ctNC7Bp93xTTp6SRrF6-40" value="5.建立block传输通道" style="text;html=1;align=center;verticalAlign=middle;resizable=0;points=[];autosize=1;rotation=90;" vertex="1" parent="1">
          <mxGeometry x="60" y="220" width="130" height="20" as="geometry" />
        </mxCell>
        <mxCell id="7ctNC7Bp93xTTp6SRrF6-41" value="" style="endArrow=classic;html=1;" edge="1" parent="1">
          <mxGeometry width="50" height="50" relative="1" as="geometry">
            <mxPoint x="155" y="390" as="sourcePoint" />
            <mxPoint x="310" y="390" as="targetPoint" />
          </mxGeometry>
        </mxCell>
        <mxCell id="7ctNC7Bp93xTTp6SRrF6-44" value="5.建立block传输通道" style="text;html=1;align=center;verticalAlign=middle;resizable=0;points=[];autosize=1;rotation=0;" vertex="1" parent="1">
          <mxGeometry x="160" y="370" width="130" height="20" as="geometry" />
        </mxCell>
        <mxCell id="7ctNC7Bp93xTTp6SRrF6-45" value="5.建立block传输通道" style="text;html=1;align=center;verticalAlign=middle;resizable=0;points=[];autosize=1;rotation=0;" vertex="1" parent="1">
          <mxGeometry x="395" y="370" width="130" height="20" as="geometry" />
        </mxCell>
        <mxCell id="7ctNC7Bp93xTTp6SRrF6-46" value="" style="endArrow=classic;html=1;" edge="1" parent="1">
          <mxGeometry width="50" height="50" relative="1" as="geometry">
            <mxPoint x="402.5" y="390" as="sourcePoint" />
            <mxPoint x="525" y="390.5" as="targetPoint" />
          </mxGeometry>
        </mxCell>
        <mxCell id="7ctNC7Bp93xTTp6SRrF6-47" value="" style="endArrow=classic;html=1;entryX=0.75;entryY=1;entryDx=0;entryDy=0;" edge="1" parent="1" target="7ctNC7Bp93xTTp6SRrF6-1">
          <mxGeometry width="50" height="50" relative="1" as="geometry">
            <mxPoint x="140" y="320" as="sourcePoint" />
            <mxPoint x="190" y="230" as="targetPoint" />
          </mxGeometry>
        </mxCell>
        <mxCell id="7ctNC7Bp93xTTp6SRrF6-48" value="6.dn1应答成功" style="text;html=1;align=center;verticalAlign=middle;resizable=0;points=[];autosize=1;rotation=90;" vertex="1" parent="1">
          <mxGeometry x="110" y="230" width="90" height="20" as="geometry" />
        </mxCell>
        <mxCell id="7ctNC7Bp93xTTp6SRrF6-51" value="" style="endArrow=classic;html=1;" edge="1" parent="1">
          <mxGeometry width="50" height="50" relative="1" as="geometry">
            <mxPoint x="320" y="350" as="sourcePoint" />
            <mxPoint x="151.5" y="350" as="targetPoint" />
          </mxGeometry>
        </mxCell>
        <mxCell id="7ctNC7Bp93xTTp6SRrF6-52" value="6.dn2应答成功" style="text;html=1;align=center;verticalAlign=middle;resizable=0;points=[];autosize=1;rotation=0;" vertex="1" parent="1">
          <mxGeometry x="190" y="330" width="90" height="20" as="geometry" />
        </mxCell>
        <mxCell id="7ctNC7Bp93xTTp6SRrF6-53" value="" style="endArrow=classic;html=1;" edge="1" parent="1">
          <mxGeometry width="50" height="50" relative="1" as="geometry">
            <mxPoint x="520" y="350" as="sourcePoint" />
            <mxPoint x="395" y="350" as="targetPoint" />
          </mxGeometry>
        </mxCell>
        <mxCell id="7ctNC7Bp93xTTp6SRrF6-54" value="6.dn3应答成功" style="text;html=1;align=center;verticalAlign=middle;resizable=0;points=[];autosize=1;rotation=0;" vertex="1" parent="1">
          <mxGeometry x="410" y="330" width="90" height="20" as="geometry" />
        </mxCell>
        <mxCell id="7ctNC7Bp93xTTp6SRrF6-55" value="" style="endArrow=classic;html=1;entryX=0;entryY=0;entryDx=0;entryDy=0;exitX=0.155;exitY=1.045;exitDx=0;exitDy=0;exitPerimeter=0;" edge="1" parent="1" source="7ctNC7Bp93xTTp6SRrF6-1" target="7ctNC7Bp93xTTp6SRrF6-3">
          <mxGeometry width="50" height="50" relative="1" as="geometry">
            <mxPoint x="70" y="160" as="sourcePoint" />
            <mxPoint x="120" y="110" as="targetPoint" />
          </mxGeometry>
        </mxCell>
        <mxCell id="7ctNC7Bp93xTTp6SRrF6-56" value="7.传输数据packeet" style="text;html=1;align=center;verticalAlign=middle;resizable=0;points=[];labelBackgroundColor=#ffffff;rotation=90;" vertex="1" connectable="0" parent="7ctNC7Bp93xTTp6SRrF6-55">
          <mxGeometry x="-0.7794" y="-4" relative="1" as="geometry">
            <mxPoint x="-12.83" y="68.1" as="offset" />
          </mxGeometry>
        </mxCell>
      </root>
    </mxGraphModel>
  </diagram>
</mxfile>
